<svg xmlns="http://www.w3.org/2000/svg" width="144" viewBox="0 0 144 144" height="144" version="1.0"><path fill="#373737" d="M 72.304688 94.488281 C 74.570312 94.488281 76.402344 96.324219 76.402344 98.585938 C 76.402344 100.847656 74.570312 102.683594 72.304688 102.683594 C 70.042969 102.683594 68.210938 100.847656 68.210938 98.585938 C 68.210938 96.324219 70.042969 94.488281 72.304688 94.488281 Z M 58.972656 65.273438 C 56.710938 65.273438 54.875 63.441406 54.875 61.175781 C 54.875 58.917969 56.710938 57.082031 58.972656 57.082031 C 61.234375 57.082031 63.066406 58.917969 63.066406 61.175781 C 63.066406 63.441406 61.234375 65.273438 58.972656 65.273438 Z M 121.035156 99.140625 C 121.050781 99.117188 121.0625 99.089844 121.078125 99.0625 C 121.25 98.753906 121.417969 98.441406 121.585938 98.125 C 121.632812 98.035156 121.679688 97.949219 121.726562 97.859375 C 121.871094 97.574219 122.019531 97.292969 122.160156 97.007812 C 122.601562 96.117188 123.027344 95.21875 123.425781 94.300781 L 87.664062 58.742188 L 65.691406 58.742188 C 64.695312 55.996094 62.0625 54.03125 58.972656 54.03125 C 55.023438 54.03125 51.824219 57.230469 51.824219 61.175781 C 51.824219 65.125 55.023438 68.324219 58.972656 68.324219 C 61.972656 68.324219 64.539062 66.472656 65.601562 63.855469 L 85.546875 63.855469 L 110.539062 88.703125 C 104.082031 103.585938 89.257812 113.996094 72 113.996094 C 52.054688 113.996094 35.363281 100.089844 31.074219 81.449219 L 50.757812 101.023438 L 65.585938 101.023438 C 66.582031 103.769531 69.214844 105.730469 72.304688 105.730469 C 76.253906 105.730469 79.453125 102.535156 79.453125 98.585938 C 79.453125 94.640625 76.253906 91.441406 72.304688 91.441406 C 69.304688 91.441406 66.738281 93.289062 65.679688 95.910156 L 52.875 95.910156 L 14.96875 58.21875 L 9.199219 59.691406 L 0.714844 61.867188 C 0.246094 65.175781 0 68.558594 0 72 C 0 75.441406 0.246094 78.824219 0.714844 82.132812 L 17.859375 86.519531 C 19.136719 91.300781 21.035156 95.820312 23.453125 100.007812 L 14.425781 115.238281 C 18.507812 120.664062 23.335938 125.492188 28.761719 129.574219 L 43.992188 120.546875 C 48.179688 122.96875 52.699219 124.863281 57.480469 126.144531 L 61.867188 143.289062 C 65.175781 143.753906 68.558594 144 72 144 C 75.441406 144 78.824219 143.753906 82.132812 143.289062 L 86.519531 126.144531 C 91.300781 124.863281 95.820312 122.96875 100.003906 120.546875 L 115.238281 129.574219 C 120.664062 125.492188 125.492188 120.664062 129.574219 115.238281 L 120.546875 100.007812 C 120.710938 99.71875 120.875 99.433594 121.035156 99.140625"/><path fill="#0078EB" d="M 71.695312 49.511719 C 69.433594 49.511719 67.597656 47.675781 67.597656 45.414062 C 67.597656 43.152344 69.433594 41.316406 71.695312 41.316406 C 73.957031 41.316406 75.789062 43.152344 75.789062 45.414062 C 75.789062 47.675781 73.957031 49.511719 71.695312 49.511719 Z M 85.027344 78.726562 C 87.292969 78.726562 89.125 80.558594 89.125 82.824219 C 89.125 85.085938 87.292969 86.917969 85.027344 86.917969 C 82.765625 86.917969 80.933594 85.085938 80.933594 82.824219 C 80.933594 80.558594 82.765625 78.726562 85.027344 78.726562 Z M 143.289062 61.867188 L 126.144531 57.480469 C 124.863281 52.699219 122.96875 48.179688 120.546875 43.996094 L 129.574219 28.761719 C 125.492188 23.335938 120.664062 18.507812 115.238281 14.425781 L 100.007812 23.453125 C 95.820312 21.03125 91.300781 19.136719 86.519531 17.855469 L 82.132812 0.710938 C 78.824219 0.246094 75.441406 0 72 0 C 68.558594 0 65.175781 0.246094 61.867188 0.710938 L 57.480469 17.855469 C 52.699219 19.136719 48.179688 21.03125 43.992188 23.453125 L 28.761719 14.425781 C 23.335938 18.507812 18.507812 23.335938 14.425781 28.761719 L 23.453125 43.996094 C 23.289062 44.28125 23.125 44.566406 22.964844 44.859375 C 22.949219 44.882812 22.9375 44.90625 22.925781 44.929688 C 22.75 45.242188 22.582031 45.5625 22.414062 45.878906 C 22.367188 45.964844 22.320312 46.054688 22.273438 46.140625 C 22.125 46.425781 21.980469 46.710938 21.835938 47 C 21.394531 47.886719 20.972656 48.785156 20.574219 49.699219 L 56.335938 85.257812 L 78.308594 85.257812 C 79.304688 88.003906 81.9375 89.96875 85.027344 89.96875 C 88.976562 89.96875 92.175781 86.769531 92.175781 82.824219 C 92.175781 78.875 88.976562 75.675781 85.027344 75.675781 C 82.027344 75.675781 79.460938 77.527344 78.402344 80.144531 L 58.453125 80.144531 L 33.460938 55.296875 C 39.917969 40.414062 54.742188 30.003906 72 30.003906 C 91.945312 30.003906 108.640625 43.910156 112.925781 62.554688 L 93.242188 42.976562 L 78.414062 42.976562 C 77.417969 40.230469 74.785156 38.269531 71.695312 38.269531 C 67.746094 38.269531 64.546875 41.464844 64.546875 45.414062 C 64.546875 49.359375 67.746094 52.558594 71.695312 52.558594 C 74.695312 52.558594 77.261719 50.710938 78.320312 48.089844 L 91.125 48.089844 L 129.03125 85.78125 L 132.082031 85.003906 L 143.289062 82.132812 C 143.753906 78.824219 144 75.441406 144 72 C 144 68.558594 143.753906 65.175781 143.289062 61.867188"/></svg>